<?xml version="1.0" encoding="UTF-8"?>
<svg id="Layer_1" data-name="Layer 1" xmlns="http://www.w3.org/2000/svg" viewBox="0 0 807.22 337.09">
  <defs>
    <style>
      .cls-1 {
        fill: #fff;
      }

      .cls-2 {
        fill: #bc2730;
      }
    </style>
  </defs>
  <path class="cls-1" d="M254.6,231.57c29.82-19.86,58.1-32.69,106.22-48.58,67.62-22.34,118.5-37.35,180.95-68.74,27.95-14.05,76.45-45.55,93.79-72.93-5.19,10.6-21.28,31.23-28.55,40.35-84.72,106.08-265.18,100.06-351.21,150.99"/>
  <path class="cls-1" d="M323.37,246.88c14.5-6.28,27.78-9.62,49.91-12.74,31.1-4.39,54.36-6.91,83.93-15.62,13.23-3.9,36.75-13.76,46.43-24.29-3.09,4.19-11.69,11.88-15.56,15.27-45.1,39.39-122.94,22.61-164.27,37.95"/>
  <path class="cls-1" d="M635.54,41.32c-24.18,71.74-121.05,127.13-202.6,180.01-49.19,31.91-98.04,68.65-131.66,99.9-8.86,8.24,1.81-3.08-1.59.4,46.92-54.03,100.9-86.21,130.73-106.47,50.45-34.27,79.14-42.91,166.17-123.07"/>
  <path class="cls-1" d="M518.29,254.08c-39.94,92.35,57.07,77.94,132.01,29.67,42.46-27.36,78.07-63.39,95.35-86.21,57.32-75.66,24.23-123.59-87.08-71.43-35.99,16.87-60.47,38.91-83.48,56.07-17.57,13.1-26.71,39.06-34.76,29.71-9.09-10.53,32.26-34.91,32.26-34.91,22.69-18.14,46.87-35.39,79.94-53.02,75.53-40.27,151.75-32.91,117.16,41.82-29.38,63.42-109.65,123.06-166.32,146.61-26.17,10.87-129.46,39.95-86.16-57.77"/>
  <path class="cls-1" d="M518.29,254.08c-39.94,92.35,57.07,77.94,132.01,29.67,42.46-27.36,76.36-61.43,95.35-86.21,22.18-28.94,24.02-31.77,24.02-31.77-32.25,64.93-109.65,123.06-166.32,146.6-26.17,10.88-129.45,39.95-86.16-57.77"/>
  <g>
    <path class="cls-2" d="M111.39,81.16s-.03,0-.01,0c.04,0,.06,0,.01,0Z"/>
    <path class="cls-2" d="M520.58,198.04c.03-.45-.08-.97-.49-1.22-.24-1.15-.49-2.33-.97-3.4-.06-.14-.17-.36-.24-.49.08-.3-.17-.5-.24-.73-.3-.9-.44-1.89-.97-2.67.11-.79-.35-1.48-.62-2.29l-1.04-3.08c-.32-.94-.27-2.1-1.01-2.9-.13-1.09-.58-2.13-.97-3.16.06-.28-.07-.53-.24-.73l-.2-.51c-.33-1.9-1.13-3.72-1.74-5.57-.04-.11-.16-.18-.24-.24.12-.29-.2-.5-.24-.73-.1-.5-.06-1.1-.49-1.46,0-.26.09-.66-.24-.73.07-.96-.53-1.84-.97-2.67-.04-1.09-.45-2.21-.97-3.16-.67-2.13-1.29-4.28-2.19-6.32-.06-.85-.41-1.64-.75-2.42-.07-.16.03-.42-.2-.5-.04-.21-1.64-5.64-1.97-5.59,0-.79-2.7-8.57-3.21-10.12l-1.32-4.05-1.54-4.3c-.05-.15-.17-.36-.24-.49.11-.29-.21-.51-.24-.73-.12-.92-.44-1.8-.73-2.67-.05-.16-.12-.34-.23-.46-.14-.91-1.13-3.01-1.5-4.2-.22-.72-.42-1.34-.66-2.06l-1.23-3.73c-.05-.17-.02-.53-.28-.5-.29-.82-.34-1.79-.97-2.42.09-.52-.06-.99-.24-1.46-.14-.34-.13-.75-.49-.97-.03-.2-.09-.57-.24-.73.02-.31-1.38-4.75-1.7-4.62,0-.74-.08-1.67-.71-2.18.02-.51-.2-1.1-.51-1.47-.03-.14-.17-.37-.21-.51-.18-.58-.32-1.2-.72-1.68-.1-.73-.38-1.49-.97-1.94-.34-.82-.8-1.66-1.5-2.21-.09-.07-.14-.18-.23-.24-.05-.44-.37-.74-.74-.94l-.25-.27c-1-1.43-4.92-4.53-6.29-4.86-.17-.04-.31-.25-.52-.23-.12-.17-.32-.2-.49-.28-2.3-1.14-4.72-2.12-7.28-2.37-1.26-.12-2.52-.68-3.9-.71-1.36-.03-2.8-.2-4.13.03-1.24.22-2.32.8-3.68.45-.73-.19-1.46.32-2.19.38-1.18.08-2.48.05-3.37.76-.88.18-4.25,1.44-4.86,1.98-.92,0-1.69.67-2.42,1.22-.09.07-.18.16-.27.22-1.4.86-2.69,1.86-3.62,3.21-.76.42-1.42,1.07-1.72,1.9-.1.07-.15.19-.24.27-.13.12-.18.28-.26.44-.05.1-.15.2-.23.28-1.41,1.41-2.13,4.08-2.69,6.01-.6.7-1.02,1.57-.96,2.5-.65,1.03-.78,2.31-1.35,3.51-.57,1.19-.66,2.49-1.09,3.63-.22.57-.75,1.04-.87,1.76-.18,1.16-.55,2.21-.83,3.25-.6.94-.94,2.06-.97,3.16-.47.81-.82,1.75-.97,2.67-.62.63-.7,1.62-.7,2.47-1.03,1.77-1.53,3.8-1.97,5.79-.2.2-.27.45-.24.73-.65.79-1.74,5.2-1.95,6.32-.11.04-.21.13-.24.24-.02.07,0,.17,0,.24-.22.06-.24.29-.24.49,0,.08.02.17,0,.24-.11.04-.21.13-.24.24-.02.07,0,.17,0,.24-.22.05-.24.29-.24.49v.49c-.12.03-.2.13-.24.24v.49c-.1.03-.24.12-.24.24v.49c-.22.06-.24.29-.24.49,0,.08,0,.16,0,.24-.47.52-.51,1.29-.73,1.94-.4,1.17-1.26,3.6-1.46,4.62-.38.72-.63,1.59-.75,2.41-.67,1.07-1.05,2.4-1.24,3.67-.47.49-.47,1.35-.73,1.94-.06.15-.14.36-.23.49-.38.58-.35,1.32-.6,2.05-.31.91-.88,1.68-.83,2.57-.51.34-.35.94-.51,1.44-.33,1.05-.95,2.08-.95,3.18-.51.88-.88,1.95-.94,2.97-.65.98-1.06,2.18-1.27,3.32-.06.31-.4.62-.22.99-.44.44-.49,1.11-.49,1.7-.43-.02-1.43,4.16-1.46,4.62-.18.16-.15.54-.24.73,0,.24-.05.53-.11.84.04-.28.08-.56.11-.84-.81,1.76-1.3,3.71-1.84,5.69l-.83,3.06c-.3,1.12-.97,2.23-.97,3.4-.55.36-.51,1.1-.53,1.7-.5.52-.26,1.35-.49,1.94-.19.5-.2,1.08-.23,1.65-.08,1.61.85,2,1.98,2.24,2.21.47,4.52.24,6.81.24h6.08c-.02.19.22.25.47.25h4.16c.25,0,.49-.06.47-.25,1.26,0,2.46.08,3.65-.24,1.19-.32,1.84-1.13,1.94-2.43.46-.31.99-2.71.97-2.92.42-.26.3-.82.49-1.22.6-1.29.84-2.74,1.26-4.11.54-.59.71-1.42.74-2.21.08-.13.14-.34.19-.49.29-.79.69-1.58.73-2.43.21-.06.24-.29.24-.49v-.24c.33-.06.24-.47.24-.73v-.24c.18-.1.23-.3.24-.49.37-.77.52-1.61.73-2.43.2-.09.2-.31.28-.49.61-1.43.7-2.87,1.46-4.6l1.52-4.55c.21-.63.44-1.22.39-1.8.15-.15.19-.31.27-.49.25-.54.46-1.09.5-1.68.16.08.2-.16.23-.26.02-.07.01-.17,0-.24.36-.39.41-.95.45-1.46,0-.08,0-.16,0-.24.3-.1.24-.47.24-.73,0-.08-.02-.17,0-.24.51-.4.56-1.11.73-1.7.02-.07,0-.16,0-.24.17-.11.24-.29.24-.49v-.49c.47-.6.62-1.44.73-2.19.47-.33.53-.92.49-1.46.17-.28.11-.49.24-.73.18-.34.31-.55.24-.97.5-.25.34-.82.52-1.22.45-.96.96-2.07.97-3.16.8-1.29,1.15-2.88,1.43-4.38.39-.66.6-1.44.73-2.19.04-.23.38-.42.24-.73.31-.11.16-.53.28-.73.25-.41,1.24-3.71,1.5-4.57l.66-2.23c.61-.92.78-2.08.97-3.16.85-1.08.93-2.57,1.26-3.89.25-.16.17-.48.19-.73.13-.12.16-.35.24-.49.55-.95.75-2.09.97-3.16.22-.06.24-.29.24-.49,0-.08-.01-.17,0-.24.19-.11.17-.31.24-.49.25-.62.44-1.27.49-1.94,0-.08-.02-.17,0-.24.28-.33,1.4-3.23,1.26-3.65.34-.46.36-.98.58-1.59.7-1.91,1.54-3.69,2.34-5.46l.2-.24.25-.24c1.02-.98,2.54-1.76,3.96-1.05,3.21,1.6,3.57,5.35,4.02,5.66-.15.27.23.53.23.73,0,.89.56,1.59.76,2.43.04.19.06.4.26.49v.24c0,.19.03.43.24.49v.24c0,.18,0,.42.21.49,0,.08.02.17,0,.24-.02.19.17.33.22.49l.99,3.19c.13.42.24.76.54.95.03.93,1.06,3.59,1.4,4.39-.02.62.27,1.22.71,1.65.24.82.24,1.79.79,2.46.03.91.48,1.71.78,2.63l1.38,4.18,1.2,3.16c-.04.47,1.78,5.58,1.95,5.83.13.19-.06.65.29.73.13.94.66,1.78.92,2.67.41,1.4.89,2.8,1.51,4.13.07.16.02.41.24.49v.24c0,.26-.06.63.24.73v.24c0,.19.03.43.24.49,0,.08,0,.16,0,.24.03.38.15.77.49.97,0,.08-.01.16,0,.24.07.44.18.88.49,1.22.09.92.37,1.82.73,2.67.14.33.08.8.49.97v.24c0,.19.03.43.24.49-.03.28.03.51.2.73.11.14,0,.45.25.51,0,.66.13,1.39.51,1.94l.2.22,1.61,5.25c.15.49.25.99.57,1.3.1.78.43,1.51.79,2.2.01.19.07.39.24.49.33,1.23.74,2.45,1.18,3.65-.02.13-.02.37.04.49.47.94.56,2.07,1.17,2.92.1.14.14.42.29.54.01.49.2.99.45,1.4.27.44.11,1.1.52,1.46-.01.26-.05.62.24.73-.01.08,0,.16,0,.24-.05.41.95,2.82,1.22,2.92,0,.7.39,1.32.64,2.05.47,1.41.7,2.9,1.55,4.02l.22.24c.14.81,1.04,1.12,1.71,1.49l.26.24c.65.42,2.29.22,3.4.21-.03.09.09.24.26.24h9.95s2.19,0,2.19,0h.24c.26,0,.63.06.73-.24h.73c.14.42.66.16.97.24,1.06.28,2.33-.02,3.4-.47.32-.14.38-.56.49-.74.45-.31.21-.97.24-1.46ZM482.86,112.62s0,.05.01.08v.02s-.08-.05-.11-.07c.03-.01.06-.02.1-.03ZM486,166.24s-.01.02-.02.02c0,0,0,0,0,0l.06-.3c-.02.11-.03.2-.03.27ZM442.5,154.82c-.03-.32.09-.57.24-.79-.07.24-.15.51-.24.79ZM481.49,156.09s0,0-.01,0c0,0,0,0,0-.01,0,0,0,0,0,0,0,0,0,.01.01.02ZM503.31,147.62c.08.12.16.24.25.34-.11-.07-.19-.2-.25-.34ZM406.06,189.53c-.09.15-.17.31-.25.47.08-.26.16-.44.25-.47ZM445.59,146.71c.04-.31.08-.62.1-.93.05.24,0,.57-.1.93ZM448.96,135.71c.11-.24.23-.46.38-.63-.14.2-.26.42-.38.63Z"/>
    <path class="cls-2" d="M405.06,180.31c.4-1.04,1.03-2.03,1.05-3.16.64-1.37.87-2.94,1.22-4.39.1-.43.22-.73.2-1.22-.06-1.74.99-5.51.22-8.75-.12-.5.19-.9-.22-1.21.09-.65.07-1.42-.24-1.94.07-.36-.11-.92-.2-1.24.03-1.16-.48-2.76-.98-3.87-.09-.2-.16-.52-.23-.73-.49-1.58-1.12-3.23-1.99-4.64l-.21-.24c-.09-.36-.25-.69-.49-.97-.08-.48-.3-.93-.72-1.2-.78-1.42-1.77-2.79-2.96-3.89-.08-.08-.14-.19-.23-.26,0-.37-.27-.61-.58-.89l-2.65-2.45c-.3-.28-.55-.58-.92-.55-.51-.84-2.98-2.21-3.87-2.7l-2.23-1.21c-.64-.35-1.23-.77-1.92-.7-.03-.1-.12-.23-.24-.24-.16-.01-.33,0-.49,0-.09-.3-.47-.26-.73-.24-.21.02-.4.02-.56,0,.19,0,.38,0,.56,0,.28-.36-5.2-1.22-5.11-1.22-.9-.06-1.76-.4-2.67-.26-1.24-.36-6.57-.85-7.54-.71-.56.08-1.14-.05-1.7,0-.07-.12-.22-.25-.47-.25h-5.12c-.48,0-.97-.1-1.46-.04.04-.11-.1-.2-.26-.2l-6.54.05c-.93,0-2.01-.18-2.92,0l-7.77-.07c-.55,0-1.01-.28-1.47-.22-.28.04-.69.06-.97,0-2.33-.49-2.68-.02-5.11-.49-.19-.22-.47-.2-.73-.24l-2.67-1.24c-1.27-1.29-2.67-2.79-3.17-4.59-.64-2.3-.63-4.75-.2-7.05.63-2.1,1.63-3.93,3.38-5.31.22.02.32-.23.48-.29l3.13-1.21c.34,0,.83.13.99-.25.08.02.17,0,.24,0h3.16c.18,0,.26-.14.24-.24,2.4,0,1.57-.61,5.58-.02.7.1,1.36.02,1.95.02h12.4c.73.42,1.95.42,2.67,0h13.13c-.03.09.09.24.26.24h12.38s2.69,0,2.69,0c.25,0,.49-.06.47-.25h2.43c.15.49,4.81.24,5.59.04.87-.22.7-.57,1.01-1.24.62-1.38.46-2.87.45-4.4,0-.57.18-1.27-.24-1.7v-11.18c0-1.09-.13-2.14-.29-3.24-.05-.33-.09-.9-.39-1.19-.79-.76-1.85-.61-2.77-.64-.72-.03-1.42-.15-2.14-.05-.48.06-.98.02-1.46.01h-1.72c-.97-.26-2.04-.23-3.14-.22-3.1.03-6.1-.12-9.18-.14l-5.81-.04c-2.41-.01-4.71-.01-7.1.05-1.6.04-3.16-.36-4.65-.09-1.78.32-2.84-.6-4.13.23h-.23c-.17,0-.34-.03-.51-.04l-2.19-.2c-.47-.04-.99,0-1.47-.06-2.95-.41-5.88-.12-8.82.28-.13.02-.28-.04-.41-.04-.41.02-.81.02-1.22-.01-.08,0-.16,0-.24,0-.04-.24-.34-.16-.52-.16-1.61-.04-3.23-.1-4.83,0-.64.04-1.28.27-1.95.19-.33-.04-.67.05-1,.06-.09,0-.16.15-.23.21.07,0,.15.02.23.05-.08-.02-.15-.03-.23-.05-3.97-.13-7.77,1.35-11.55,2.74-.85.31-1.42.81-2.07,1.11-1.08.5-1.96,1.19-2.91,1.93-.71.56-1.8.79-2.19,1.75-.04.09-.17.13-.22.22-.05.1-.22.15-.25.26-.68.08-1.09.68-1.46,1.22-.06.09-.16.17-.24.24-.07.06-.15.22-.24.24-.26.05-.31.37-.49.49-.45.31-.98.63-1.02,1.23-.51.33-.88.87-1.11,1.42-.55.32-.88.9-1.09,1.49-.7.78-1.39,1.6-1.64,2.64-.77.42-.88,1.42-1.21,2.24l-.77,1.9c-.76,1.89-1.83,3.79-1.96,5.83-.02.32-.2.6-.2.99l-.02,1.94c-.11-.04-.22.09-.22.26v6.53c0,.17.15.29.24.26,0,1.69.12,3.2.64,4.93.5,1.66.81,3.3,1.55,4.79.56,1.12.91,2.31,1.48,3.41l1.73,3.34c.23.45.48.87.89,1.05.18.59.51,1.19,1.07,1.47.38.94,1.06,1.78,1.87,2.38l.27.26c1.09,1.45,2.8,2.32,4.28,3.5,2.05,1.62,8.4,4.79,11.02,4.8.34.28.79.26,1.22.26,1.1.38,2.35.58,3.64.66l4.39.27c1.4.89,5.65.29,7.54.53.07.09.25.22.48.21,3.08-.11,6.04-.02,9.01-.02h3.17c.25,0,.49-.06.47-.24h2.67c-.02.19.22.25.47.25h4.63c3.52,0,2.89.05,6.32.48.46.18,5.71.65,7.25,3.39l1.5,2.69c.24,1.05.33,2.17.73,3.16v2.19c0,.51-.04,1.21-.24,1.7-.46,1.15-.78,2.34-1.44,3.4-.46.75-1.31,1.2-1.72,1.97-.96.74-2.09,1.13-3.16,1.68-.59.21-1.24.13-1.95.26l-2.45.44-4.12.03-21.4-.03c-.08,0-.17,0-.24-.01-1.56-.48-3.25-.15-4.87-.18l-8.1-.16c-2.58-.05-5.09-.02-7.69-.04l-4.02-.02-5.25.02-4.84-.06c-1.47-.02-2.66-.27-3.59-1.46-.09-.7-.41-1.36-.79-1.95-.02-.19-.08-.38-.24-.49,0-.27-.04-.54-.24-.73-.02-.5.04-1.16-.44-1.43-.13-.95-.57-1.85-.98-2.7.1-.32-.16-.5-.28-.73-.11-.22-.11-.51-.24-.73-.07-.12-.15-.35-.19-.49-.49-1.64-.98-3.31-1.71-4.86-.1-.21-.05-.58-.28-.73.04-1.06-.56-2.11-.91-3.19-.32-.97-.3-2.03-1.03-2.64,0-.68-3.36-10.48-3.89-11.67-.07-.16-.05-.39-.24-.49-.01-.08,0-.16,0-.24.06-.89-.37-1.65-.72-2.42-.4-.85-.45-2.55-1.23-3.42.08-.95-.48-1.6-.73-2.43-.67-2.2-1.19-4.49-2.19-6.56-.46-2.17-1.36-4.26-2.19-6.32-.19-.46.02-1.14-.49-1.46,0-.77-.35-1.5-.68-2.19-.09-.19-.11-.56-.25-.73-.07-.62-.41-1.41-.77-1.94-.07-.76-.3-1.53-.7-2.19,0-.26-.05-.53-.23-.73,0-.26,0-.57-.24-.73.02-.07-.01-.17-.01-.24,0-.19-.05-.4-.23-.49.06-.71-1.67-5.27-2.2-6.08.14-.23-.11-.42-.22-.58l-.06-.15c.02-.27-.22-.52-.24-.73-.17-1.25-.71-2.45-1.23-3.7-1.08-2.55-2.22-5.06-4.11-7-.24-.25-.35-.62-.72-.75-.09-.03-.15-.18-.23-.23-.09-.07-.18-.15-.27-.23l-.24-.24c-.08-.08-.16-.17-.23-.27-.84-.98-1.92-2.02-3.18-2.45-.6-.85-1.85-.9-2.66-1.45-.83-.57-3.11-1.62-4.01-1.64-.71-.53-1.68-.74-2.57-.8-.4-.5-1.18.02-1.7-.19-.56-.22-1.09-.31-1.7-.24-.41-.61-3.33-.51-4.15-.5-1.29.01-2.69-.27-3.87.26-1.49-.1-3,.19-4.38.73-.4,0-.94-.17-1.22.2-.52-.03-1.13.04-1.46.49-.9.13-1.93.22-2.67.77-.45,0-.94.07-1.22.46-1.28.39-2.48,1.14-3.49,2.01-.45.07-.83.36-1.14.68l-.23.25-.26.23c-.58.36-1.03.89-1.44,1.43-.7.2-1.33.79-1.5,1.5-.38.12-.46.47-.7.7-.31.29-.76.48-.72,1l-.24.24c-.32.1-.48.4-.49.73-.11.14-.14.35-.26.47-.14.15-.15.33-.23.5-.07.15-.23.31-.24.49-.36.29-.49.74-.49,1.22-.09.06-.19.15-.24.24-.03.06,0,.17,0,.24-.16.11-.23.3-.24.49-.28.24-.27.63-.24.97-.13.14-.2.31-.24.49v.24c-.54.14-.3.92-.55,1.21-.54.61-.69,1.35-.88,2.24-.21.92-.85,1.74-.8,2.63-.51.89-.76,1.91-.93,2.92-.16.1-1.11,2.35-.97,2.92-.16.31-.32.61-.29.97-.34.31-.42.99-.44,1.43-.74,1.26-1.12,2.72-1.46,4.16-.04.16,0,.33-.02.49-.26.2-.39.52-.51.9l-1.3,4.08c-.2.62-.49,1.25-.41,1.81-.09.2-.26.47-.19.73-.18.11-.18.32-.24.49l-.97,2.67-.97,3.16-.73,1.94c-.14.38-.19.82-.24,1.22-.2.29-.22.64-.24.97-.12.1-.17.37-.24.49-.27.32-.35.81-.49,1.22-.71,2.16-1.44,4.34-1.95,6.56-.5.58-.57,1.33-.76,2.02-.42,1.5-1.28,2.88-1.73,4.45l-.66,2.28c-.04.15,0,.33-.04.48-.64.47-.63,1.4-.88,2.12-.09.25,0,.54-.05.8-.12.03-.2.13-.24.24v.49c-.1.06-.22.13-.27.24-.03.07.02.17,0,.24-.07.08-.18.16-.21.26-.17.65-.55,1.25-.53,1.92-.47.76-.69,1.6-.92,2.43-.19.7-.84,1.37-.73,2.19-.58.94-.7,2.11-1.02,3.16-.51.62-.68,1.65-.73,2.43-.45.35-.24,1.01-.44,1.46-.4.91-.95,1.88-1.13,2.96-.19,1.15-.82,2.07-.82,3.11-.26-.29-1.15,3.11-.97,3.16-.35.35-.31.79-.49,1.22-.36.84-.75,1.74-.73,2.67-.86,1.47-.98,3.23-1.46,4.86-.1.33-.2.61-.24.97-.52.72-.4,1.71-.82,2.58-.4.84-.46,1.69-.4,2.52-.63.83-.2,1.85.48,2.44.47.4.84.74,1.72.74l6.55.03c.66.55,1.58,0,2.34.07,1.89.15,3.79.13,5.68.12.25,0,.61.08.73-.19h1.46c.37.23.61.19.97,0l1.73-.03c.15,0,.31.03.46.03.02.23.32.15.49.15h.49c.11,0,.25,0,.24-.15.08-.01.16,0,.24-.01.08-.02.16-.07.24-.09h.24c.37,0,.58-.37.69-.69.03-.08.01-.17.04-.24.44-.48.67-1.08.89-1.77l1.55-5.01c.58-.74.52-1.77.73-2.67.44-.49.43-1.16.73-1.7.31-.56.35-1.08.49-1.7.16-.74.66-1.41.73-2.19.11-.04.21-.13.24-.24.02-.08,0-.17,0-.24,0-.08,0-.16,0-.24.21-.09.21-.31.27-.49.23-.64.46-1.27.51-1.95.04-.13.14-.34.19-.48.44-1.29,1.22-2.51,1.22-3.89.42-.44.38-1.13.49-1.7.58-.95,1.05-2.05.97-3.16.13-.14.24-.27.24-.49v-.24c.19-.11.19-.32.27-.49.65-1.37,1.02-2.89,1.23-4.39.49.16,1.2-3.24,1.25-3.78.52-1.07.89-2.16.89-3.25.22-.07.16-.33.24-.49.54-.97.82-2.08,1.13-3.25.38-1.43,1.05-2.69,1.3-4.04.04-.23.39-.42.24-.73.15-.13.24-.28.24-.49v-.49c.4-.94.88-1.89.97-2.92.57-.92.83-2.08.97-3.16.58-.68,1.53-4,1.7-4.86.12-.16.18-.31.27-.49.08-.14,1.53-4.24,1.48-4.86.5-1.17.96-2.39,1.16-3.65.09-.16.29-.26.24-.49-.02-.08,0-.16,0-.24.33-.06.24-.47.24-.73v-.24c.25,0,.24-.29.24-.49v-.24c.08-.07.19-.14.24-.24.03-.06,0-.17,0-.24.12-.04.2-.13.24-.24v-.24c.27,0,.2-.3.24-.49.1-.4.24-.8.24-1.22.26-.53.47-1.1.49-1.7.21-.06.25-.29.24-.49,0-.08.01-.16,0-.24.31-.1.24-.47.24-.73.16-.11.24-.3.24-.49v-.24c0-.08,0-.16,0-.24.21-.06.24-.29.24-.49v-.24c.16-.11.25-.28.24-.49,0-.08-.01-.16,0-.24.36-.29.39-.79.49-1.22.02-.08,0-.17,0-.24.21-.09.16-.33.24-.49.51-.98.6-2.12.97-3.16l1.7-3.91c.67-.77,1.37-1.52,2.19-2.13,1.15-.02,2.31-.19,3.4.2l.23.25c1.05.91,1.46,2.22,2.18,3.38.18.29-.07,1,.54,1.01,0,.07-.03.15-.04.22-.01.46.07.97.49,1.22,0,.08-.01.16,0,.24.05.37.13.79.49.97-.05.95.52,1.77.73,2.67.04.18.04.4.24.49,0,1.1.61,2.12.97,3.16.12.34.07.84.47.99,0,.67.23,1.31.47,1.92.06.15.19.34.23.49.19.83.49,1.73.99,2.43.13.82.13,1.84.76,2.43-.02.44.08.93.44,1.22-.1.36.05.71.26.97.1.13.15.35.28.49.11.12.02.42.24.49,0,.08,0,.16,0,.24,0,.19.08.37.24.49.04.22-.08.52,0,.73.29.75.49,1.55.97,2.19.02.64.26,1.32.49,1.94.24.66.37,1.32.73,1.94.34.58.17,1.47.73,1.94.25,1.16.67,2.35,1.22,3.4.11.94.55,1.84.97,2.67.16.32.06.82.49.97,0,.42-.08.9.24,1.22,0,.45.09.95.49,1.21-.1.3.17.49.2.73.22,1.48,1.17,2.73,1.57,4.27.19.74.23,1.49.62,2.04.1.14,0,.46.25.51l.26.95c.15.55.17,1.1.5,1.71.25.47.26,1.01.43,1.45.34.85.59,2.73,1.25,3.87.45,2.56,1.5,4.97,2.57,7.4.47,1.06.5,2.18,1.1,3.07-.1.73.46,1.28.71,1.93.15.39.15.7.5.99.1.75.26,1.58.73,2.19,0,.62.31,1.14.49,1.7.13.42-.02,1.01.49,1.22-.02.53,0,1.16.49,1.46-.01.33.16.47.24.73.18.58.76,2.88.97,2.67.02.17.16.34.24.49-.03-.04-.06-.09-.08-.15l.08.15c.08.14.01.38.19.49.07.68.1,1.58.74,1.95.74,1.93.44,2.45,1.55,4.15.84,1.28.24,2.02,4.57,2.66.39.06.82,0,1.22,0h2.19c-.03.09.09.24.26.24h10.9c.17,0,.29-.15.26-.24h12.16c2.1,0,1.92.38,3.89.24,1.51-.11,3.01.18,4.6.2l7.55.08c.76,0,1.34-.17,1.95-.27.54-.09,1.16,0,1.7,0h8.51l1.23.22,7.28.02c1.05,0,2.26-.15,3.36.08,1.21.24,2.11-.06,3.2-.08l3.39-.03c.82,0,1.6-.33,2.47-.19,1.56.26,3.25.37,4.6-.26,1.23,0,2.52.01,3.65-.49.13-.06.34.01.49,0,.4-.04.98.18,1.22-.24.08,0,.17.01.24,0l2.31-.37c.29-.05.49-.21.61-.36.99.1,1.86-.53,2.67-.97.58-.31,1.23-.19,1.7-.73.3-.35,1.3-.15,1.51-.73.78.01,4.23-1.98,4.57-2.66.42,0,.66-.31.98-.48.36-.21.49-.4.68-.76.49,0,.7-.25,1.09-.66l1.92-2.06c1.09-1.16,2.22-2.38,2.87-3.84.1-.04.18-.14.25-.21.35-.32.71-.74.74-1.24.45-.49.88-1.04.96-1.72.36-.49.63-1.06.69-1.67ZM351.34,199s0,.01,0,.02c-.06,0-.07,0,0-.02ZM329.18,122.78c-.06-.19-.13-.39-.19-.58.09.18.14.38.19.58ZM328.43,119.49h0s0,0,0,0h0ZM209.1,162.21s.01,0,.02-.01c0,0,0,.02-.01.03,0,0,0,0,0-.01ZM297.54,151.24s.07.07.09.15c-.03-.05-.06-.1-.09-.15ZM214.85,161.3s0,0-.01,0c0,0,0-.01.01-.02h0ZM230.02,165.91c.09,0,.19-.03.28-.01h-.28ZM213.12,150.54s0-.1.02-.15c.02,0,.04,0,.07,0-.03.05-.06.1-.09.16ZM245.95,125.07s0,.04,0,.06c-.03.05-.05.1-.07.15.02-.07.05-.14.07-.21ZM286.7,114.42s-.02.02-.03.04c0-.03.01-.04.03-.04ZM346.09,131.15c-.59.02-1.19.02-1.78.05.59-.05,1.19-.06,1.78-.05ZM251.19,110.78c.07-.1.14-.22.21-.32-.06.12-.13.23-.21.32ZM264.07,120.26c.03.08.03.18.04.26l-.04-.26ZM287.41,187.34v.24c-.02-.08.01-.16,0-.24Z"/>
    <path class="cls-2" d="M198.43,182.97c.2-.38.37-.75.24-1.21.59-.34.03-1.18.24-1.7.46-1.13.22-2.45.49-3.65.54-2.44.24-5.02.24-7.53v-15.05c0-.17-.15-.29-.24-.26v-6.81c0-1.28-.16-2.53-.17-3.89l-.07-9.24v-14.57c0-.17-.15-.29-.24-.26v-14.6c0-.25-.05-.49-.24-.47,0-.02,0-.03,0-.05,0-.09,0-.19,0-.28.06-.28.24-.6.16-.86-.39-1.29.03-2.48-.07-3.74-.35-4.36.29-8.65-.33-12.81-.15-1.03-1.3-1.51-2.43-1.47-1.73.07-3.37-.01-5.1,0h-3.16c-.88.02-1.74.02-2.7-.17-1.57-.32-3.07.36-4.62.38l-4.84.08c-.18,0-.39.04-.29.19-.58,0-1.21.93-1.21,1.45l-.27,19.44c0,.66-.11,1.12-.08,1.79l.08,1.66c.11,2.25.06,4.41.07,6.55l.02,14.08.23,1.23v3.17c0,.25.06.49.24.47v5.59l.02,6.32-.18,3.87.16,2.21v17.01c-.44-.3-.15,2.59-.29,2.92-.21.15-.38.75-.25.97-.3.33-.34.79-.44,1.22l-2.19,1.94-2.91.46c-2.38.38-4.07-1.32-5.6-2.89l-.78-1.88-2.13-6.63c-.13-.4.04-.99-.46-1.22-.14-.8-.25-1.75-.71-2.43.01-.34-.02-.7-.24-.97.07-.37-.08-.68-.26-.97-.12-.2.09-.62-.25-.73-.11-.81-.25-1.74-.72-2.43-.09-.91-.34-1.87-.77-2.67,0-.53-.13-1.06-.49-1.46.02-.27-.01-.56-.24-.73-.02-.07-.02-.18,0-.24.1-.36-.18-.66-.24-.97-.09-.51-.06-1.09-.49-1.46.1-.4-.14-.64-.2-.97-.17-.86-.19-1.93-.73-2.67-.03-.54-.19-1.04-.52-1.46-.33-2.06-1-4.1-1.65-6.08-.06-.56-.1-1.27-.49-1.7-.14-1.18-.44-2.37-1.02-3.4-.21-1.56-.68-3.15-1.22-4.62-.5-2.64-1.28-5.24-2.18-7.76,0-.59-.06-1.24-.44-1.71-.06-.63-1.38-5.9-1.95-6.29-.31-.96-.33-2.03-.78-2.95-.09-.19-.07-.57-.24-.73-.1-.76-.37-1.72-.73-2.43.19-.36-.17-.68-.2-.97-.18-1.46-.92-2.8-1.5-4.13-.26-.59-.09-1.54-.73-1.94-.03-.17-.14-.34-.24-.49-.16-1.05-.67-2.21-1.46-2.92-.19-.51-.24-1.12-.73-1.46-.12-.91-2.26-3.5-2.88-4.14-1.13-1.17-2.25-2.46-3.7-3.18-.83-1.37-2.58-2.12-4.12-2.64-.15-.05-.34-.17-.49-.24l-.49-.24-.49-.24c-.21-.18-.42-.33-.73-.28-.49-.37-1.11-.71-1.7-.71-.09-.34-.54-.11-.73-.23-.58-.37-1.26-.49-1.95-.49-.3-.34-.78-.49-1.22-.49h-.97c-.17-.36-.65-.24-.98-.26-.08,0-.16,0-.24,0,.86-.36-5.52-.62-5.84-.66-.47.04-5.76.31-4.61.45-.38,0-8.28,1.15-8.29,1.95-1.43.4-8.1,3.43-8.92,5.1-.98.62-1.73,1.56-2.5,2.42-.65.73-1.42,1.48-1.71,2.43l-.22.25c-.31.1-.49.39-.52.71-.69.6-1.09,1.55-1.18,2.45-.29.33-.28.78-.27,1.2-.14-.08-.2.16-.21.26-.01.16,0,.33,0,.49-.31.03-.19.39-.2.6l-.04.13c-.24.21-.09.94-.24,1.22-.51.88-.29,1.94-.49,2.92l-.49,2.43c-.09.26,0,.69,0,.97v23.33c0,.65-.03,1.31.05,1.96.05.39.04.78,0,1.18-.02.16-.04.35,0,.51.08.33-.08.65-.05.97.05.57-.23,1.31.24,1.7.02,1.27-.13,3.53.24,4.62.13.39.2,1.2.2,1.72l-.02,14.82c0,1.28-.33,2.43.06,3.63-.42-.22-.19,1.96-.24,2.19-.36-.64-.02,3.63,0,4.13h-.01c.03.24-.07.68.23.74v.45c-.31.16-.25.68-.22.99.11,1.22-.26,2.52.24,3.65v9.97c0,.73-.18,1.58.2,2.19l.03,6.06c0,.75-.15,1.59.22,2.23-.14.57.32.81.55,1.19.2.33-.14,1.07.46,1.22l.09.09c.05.07.09.17.17.17h.24c.1.17.29.21.48.22.13.14.3.21.49.24.08.01.17-.02.24,0,.03.1.12.24.24.24.16,0,.33,0,.49,0,.11.32.48.17.73.24l1.71.47h2.91c-.79.37,4.19.37,3.4.01h.73s1.95,0,1.95,0c.53,0,1,.06,1.46-.2l1.22-.04c.21.39.95.38,1.22.05.77-.11,1.55.18,2.4.19,1.9.02,3.28-1.46,2.99-3.16-.07-.39-.04-.82-.04-1.22.42-.56.42-1.63,0-2.19v-21.65c0-.25-.05-.49-.24-.47v-23.07c0-.18-.15-.29-.24-.27v-23.34c0-.39-.04-.56-.24-.73v-10.21c0-.08,0-.16,0-.24.77-2.18-.04-1.78,1.5-4.36.48-.38,1.01-.74,1.43-1.19.19,0,.38-.06.47-.23,1.55-.22,3.06-.47,4.62-.27.32.32.78.38,1.2.51.77.76,1.54,1.58,2.44,2.15.36.54.49,1.24.96,1.69.45,1.13.57,2.41,1.2,3.43.19,1.15.54,2.33,1.01,3.38.22.5-.1,1.34.45,1.72.07.57.37.95.5,1.43.29,1.02.43,2.28.99,3.17-.09.33.17.69.24.97.11.4-.13.89.24,1.22.04.26.15.7.24.97.14.41-.02.96.44,1.22-.04.62.31,1.15.49,1.7.17.56.01,1.28.53,1.7.03.33-.11.79.22.99.15,1.22,1.43,4.48,1.48,4.84.14.98.3,2.01.73,2.92-.07.36.16.65.24.97.13.49.02,1.13.49,1.46.53,2.7,1.19,5.47,2.19,8.02.11.29-.19.85.24.97,0,.08,0,.16,0,.24.07.69.19,1.48.73,1.94.13.93.27,1.85.68,2.67.5.99.42,2.2.98,3.16.07.12.03.35.04.49.02.45.43.87.56,1.25-.27.79,1.2,4.64,1.58,5.56.08,1.09.54,2.1.96,3.2.22.57.09,1.27.51,1.66.27.9.19,1.93.76,2.69.26.9.4,1.9.94,2.67.16.74.29,1.57.77,2.17,0,.59.13,1.21.49,1.7,0,.46.15.88.49,1.22l.24.24c.03.15.07.41.24.49.33,1,.47,2.17,1.23,2.92l.97,1.91c.6,1.19,1.21,2.1,2.03,3.04,1.32,1.52,2.65,3.01,4.26,4.06l.25.24c.32.52.89.81,1.46,1l.24.22c.18.41.55.68,1,.74.11.32.43.42.73.46.11.11.34.23.49.29.3.32.75.52,1.22.48.69.39,1.4.81,2.19.93.27.39.76.5,1.22.49.49.36,1.11.42,1.7.49.89.45,1.93.67,2.92.73.03.27.36.14.49.24.15.12.33.18.49.27.81.46,1.79.13,2.67.21.39.42,1.31.42,1.7,0,.58.22,1.24.12,1.88.26,1.12.26,1.85.33,2.74-.02.69-.28,1.5-.08,2.19-.45.69-.37,1.79.33,2.43-.28.15-.14.68.14.73-.24,1.02.07,2.06-.16,2.92-.73.46.01.94-.09,1.22-.49,1.09-.39,2.27-.7,3.16-1.46.89-.09,1.83-.51,2.43-1.17.84-.1,1.78-.49,2.2-1.24.67-.12,1.08-.71,1.45-1.24.06-.09.19-.15.24-.24.57-.03.93-.5,1.19-.98l.27-.24.24-.27c.88-.65,1.71-1.4,2.2-2.38.29-.14.51-.4.5-.73.88-.89,1.45-2.2,1.72-3.42.42-.47.68-1.07.68-1.7.52-.18.06-.87.24-1.22ZM114.99,95.5s0,0,0,0c.02.01.03.03.04.05-.03-.02-.06-.05-.09-.07.01,0,.02,0,.04.02ZM89.99,137.06s0,0,0,.02c0,0,0,0,0-.01,0,0,0,0,0,0ZM177.82,192.04s-.01,0-.03,0c0,0,0,0,0,0,0,0,.02,0,.02,0ZM175.1,141.75c0,.19,0,.39,0,.58,0-.2-.01-.4,0-.58ZM182,190.31s0-.08,0-.13c.04.04.09.07.13.11-.04,0-.08.02-.13.02ZM175.4,107.08c-.16-.12-.27-.28-.32-.47.13.16.24.32.32.47ZM188.7,178.62s.07-.07.11-.11c-.04.04-.07.07-.11.11ZM113.43,82.12s.06-.08.1-.12c.03.02.05.05.07.07-.06.02-.12.03-.17.05ZM129.88,145.84c.05.16.1.3.15.44-.08-.08-.15-.16-.21-.27.03-.05.04-.11.06-.17ZM198.39,138.48c0-.06,0-.07.02,0,0,0-.01,0-.02,0ZM130.05,146.81c-.06-.1-.12-.21-.18-.31.08.09.13.2.18.31ZM140.96,181.24s.01.01.02.02c0,0,0,0-.01,0,0,0,0-.02,0-.02ZM82.26,130.4c0,.19.02.38.03.57-.04-.18-.04-.38-.03-.57ZM189,84.77c-.42,0-.85,0-1.27,0,.48-.03.9-.02,1.27,0ZM118.19,82.1s-.05-.02-.08-.04c.03,0,.06.02.08.04Z"/>
  </g>
</svg>